<svg width="180" height="180" viewBox="0 0 180 180" fill="none" xmlns="http://www.w3.org/2000/svg">
<rect width="180" height="180" rx="36" fill="black"/>
<path d="M123 79.7026L123 109.079L55.896 109.079L55.896 82.9666C55.896 78.4226 56.44 74.5186 57.528 71.2546C58.616 67.9266 60.088 65.4626 61.944 63.8626C65.4 60.7906 69.304 59.2546 73.656 59.2546C78.904 59.2546 82.808 60.9186 85.368 64.2466C86.264 65.4626 86.84 66.2946 87.096 66.7426C87.288 67.1906 87.64 67.9906 88.152 69.1426C89.048 64.9826 90.936 61.6866 93.816 59.2546C96.632 56.7586 100.152 55.5106 104.376 55.5106C109.048 55.5106 113.176 57.1106 116.76 60.3106C120.92 64.0866 123 70.5506 123 79.7026ZM83.736 97.7506L83.736 83.3506C83.736 75.1586 80.952 71.0626 75.384 71.0626C72.184 71.0626 69.88 72.0546 68.472 74.0386C67.064 76.0226 66.36 79.0946 66.36 83.2546L66.36 97.7506L83.736 97.7506ZM112.536 97.7506L112.536 79.9906C112.536 75.8306 111.896 72.6626 110.616 70.4866C109.272 68.2466 106.776 67.1266 103.128 67.1266C97.176 67.1266 94.2 71.8946 94.2 81.4306L94.2 97.7506L112.536 97.7506Z" fill="#E5E5E5"/>
<line x1="35" y1="105" x2="144" y2="105" stroke="white" stroke-width="9"/>
<rect x="147" y="84.5" width="6" height="40" fill="#D9D9D9"/>
<rect x="155" y="90.5" width="6" height="27" fill="#D9D9D9"/>
<rect x="33" y="124.5" width="6" height="40" transform="rotate(-180 33 124.5)" fill="#D9D9D9"/>
<rect x="25" y="118.5" width="6" height="27" transform="rotate(-180 25 118.5)" fill="#D9D9D9"/>
</svg>
