<svg width="32" height="32" viewBox="0 0 32 32" fill="none" xmlns="http://www.w3.org/2000/svg">
<path d="M10.6667 26.6667H21.3334V22.6667C21.3334 21.2 20.8112 19.9445 19.7667 18.9C18.7223 17.8556 17.4667 17.3334 16 17.3334C14.5334 17.3334 13.2778 17.8556 12.2334 18.9C11.1889 19.9445 10.6667 21.2 10.6667 22.6667V26.6667ZM16 14.6667C17.4667 14.6667 18.7223 14.1445 19.7667 13.1C20.8112 12.0556 21.3334 10.8 21.3334 9.33335V5.33335H10.6667V9.33335C10.6667 10.8 11.1889 12.0556 12.2334 13.1C13.2778 14.1445 14.5334 14.6667 16 14.6667ZM5.33337 29.3334V26.6667H8.00004V22.6667C8.00004 21.3111 8.31671 20.0389 8.95004 18.85C9.58337 17.6611 10.4667 16.7111 11.6 16C10.4667 15.2889 9.58337 14.3389 8.95004 13.15C8.31671 11.9611 8.00004 10.6889 8.00004 9.33335V5.33335H5.33337V2.66669H26.6667V5.33335H24V9.33335C24 10.6889 23.6834 11.9611 23.05 13.15C22.4167 14.3389 21.5334 15.2889 20.4 16C21.5334 16.7111 22.4167 17.6611 23.05 18.85C23.6834 20.0389 24 21.3111 24 22.6667V26.6667H26.6667V29.3334H5.33337Z" fill="black"/>
</svg>
