<svg width="32" height="32" viewBox="0 0 32 32" fill="none" xmlns="http://www.w3.org/2000/svg">
<path d="M6.66667 28C5.93333 28 5.30556 27.7389 4.78333 27.2166C4.26111 26.6944 4 26.0666 4 25.3333V6.66665C4 5.93331 4.26111 5.30554 4.78333 4.78331C5.30556 4.26109 5.93333 3.99998 6.66667 3.99998H12.2667C12.5556 3.19998 13.0389 2.55554 13.7167 2.06665C14.3944 1.57776 15.1556 1.33331 16 1.33331C16.8444 1.33331 17.6056 1.57776 18.2833 2.06665C18.9611 2.55554 19.4444 3.19998 19.7333 3.99998H25.3333C26.0667 3.99998 26.6944 4.26109 27.2167 4.78331C27.7389 5.30554 28 5.93331 28 6.66665V25.3333C28 26.0666 27.7389 26.6944 27.2167 27.2166C26.6944 27.7389 26.0667 28 25.3333 28H6.66667ZM6.66667 25.3333H25.3333V6.66665H6.66667V25.3333ZM9.33333 22.6666H18.6667V20H9.33333V22.6666ZM9.33333 17.3333H22.6667V14.6666H9.33333V17.3333ZM9.33333 12H22.6667V9.33331H9.33333V12ZM16 5.66665C16.2889 5.66665 16.5278 5.5722 16.7167 5.38331C16.9056 5.19442 17 4.95553 17 4.66665C17 4.37776 16.9056 4.13887 16.7167 3.94998C16.5278 3.76109 16.2889 3.66665 16 3.66665C15.7111 3.66665 15.4722 3.76109 15.2833 3.94998C15.0944 4.13887 15 4.37776 15 4.66665C15 4.95553 15.0944 5.19442 15.2833 5.38331C15.4722 5.5722 15.7111 5.66665 16 5.66665Z" fill="black"/>
</svg>
