<svg width="32" height="32" viewBox="0 0 32 32" fill="none" xmlns="http://www.w3.org/2000/svg">
<path d="M13 28C11.8667 28 10.8889 27.6056 10.0667 26.8167C9.24444 26.0278 8.77778 25.0778 8.66667 23.9667C7.33333 23.7889 6.22222 23.2 5.33333 22.2C4.44444 21.2 4 20.0222 4 18.6667C4 18.2 4.06111 17.7389 4.18333 17.2833C4.30556 16.8278 4.48889 16.4 4.73333 16C4.48889 15.6 4.30556 15.1778 4.18333 14.7333C4.06111 14.2889 4 13.8222 4 13.3333C4 11.9778 4.44444 10.8056 5.33333 9.81667C6.22222 8.82778 7.32222 8.24444 8.63333 8.06667C8.7 6.93333 9.15556 5.97222 10 5.18333C10.8444 4.39444 11.8444 4 13 4C13.5778 4 14.1167 4.11111 14.6167 4.33333C15.1167 4.55556 15.5778 4.85556 16 5.23333C16.4 4.85556 16.8556 4.55556 17.3667 4.33333C17.8778 4.11111 18.4222 4 19 4C20.1556 4 21.15 4.38889 21.9833 5.16667C22.8167 5.94444 23.2667 6.9 23.3333 8.03333C24.6444 8.21111 25.75 8.8 26.65 9.8C27.55 10.8 28 11.9778 28 13.3333C28 13.8222 27.9389 14.2889 27.8167 14.7333C27.6944 15.1778 27.5111 15.6 27.2667 16C27.5111 16.4 27.6944 16.8278 27.8167 17.2833C27.9389 17.7389 28 18.2 28 18.6667C28 20.0444 27.55 21.2278 26.65 22.2167C25.75 23.2056 24.6333 23.7889 23.3 23.9667C23.1889 25.0778 22.7278 26.0278 21.9167 26.8167C21.1056 27.6056 20.1333 28 19 28C18.4444 28 17.9056 27.8944 17.3833 27.6833C16.8611 27.4722 16.4 27.1778 16 26.8C15.5778 27.1778 15.1111 27.4722 14.6 27.6833C14.0889 27.8944 13.5556 28 13 28ZM17.3333 8.33333V23.6667C17.3333 24.1333 17.4944 24.5278 17.8167 24.85C18.1389 25.1722 18.5333 25.3333 19 25.3333C19.4444 25.3333 19.8278 25.1556 20.15 24.8C20.4722 24.4444 20.6444 24.0444 20.6667 23.6C20.2 23.4222 19.7722 23.1833 19.3833 22.8833C18.9944 22.5833 18.6444 22.2222 18.3333 21.8C18.1111 21.4889 18.0278 21.1556 18.0833 20.8C18.1389 20.4444 18.3222 20.1556 18.6333 19.9333C18.9444 19.7111 19.2778 19.6278 19.6333 19.6833C19.9889 19.7389 20.2778 19.9222 20.5 20.2333C20.7444 20.5889 21.0556 20.8611 21.4333 21.05C21.8111 21.2389 22.2222 21.3333 22.6667 21.3333C23.4 21.3333 24.0278 21.0722 24.55 20.55C25.0722 20.0278 25.3333 19.4 25.3333 18.6667C25.3333 18.5556 25.3278 18.4444 25.3167 18.3333C25.3056 18.2222 25.2778 18.1111 25.2333 18C24.8556 18.2222 24.45 18.3889 24.0167 18.5C23.5833 18.6111 23.1333 18.6667 22.6667 18.6667C22.2889 18.6667 21.9722 18.5389 21.7167 18.2833C21.4611 18.0278 21.3333 17.7111 21.3333 17.3333C21.3333 16.9556 21.4611 16.6389 21.7167 16.3833C21.9722 16.1278 22.2889 16 22.6667 16C23.4 16 24.0278 15.7389 24.55 15.2167C25.0722 14.6944 25.3333 14.0667 25.3333 13.3333C25.3333 12.6 25.0722 11.9778 24.55 11.4667C24.0278 10.9556 23.4 10.6889 22.6667 10.6667C22.4222 11.0667 22.1056 11.4167 21.7167 11.7167C21.3278 12.0167 20.9 12.2556 20.4333 12.4333C20.0778 12.5667 19.7333 12.5556 19.4 12.4C19.0667 12.2444 18.8444 11.9889 18.7333 11.6333C18.6222 11.2778 18.6389 10.9333 18.7833 10.6C18.9278 10.2667 19.1778 10.0444 19.5333 9.93333C19.8667 9.82222 20.1389 9.62222 20.35 9.33333C20.5611 9.04444 20.6667 8.71111 20.6667 8.33333C20.6667 7.86667 20.5056 7.47222 20.1833 7.15C19.8611 6.82778 19.4667 6.66667 19 6.66667C18.5333 6.66667 18.1389 6.82778 17.8167 7.15C17.4944 7.47222 17.3333 7.86667 17.3333 8.33333ZM14.6667 23.6667V8.33333C14.6667 7.86667 14.5056 7.47222 14.1833 7.15C13.8611 6.82778 13.4667 6.66667 13 6.66667C12.5333 6.66667 12.1389 6.82778 11.8167 7.15C11.4944 7.47222 11.3333 7.86667 11.3333 8.33333C11.3333 8.68889 11.4333 9.01667 11.6333 9.31667C11.8333 9.61667 12.1 9.82222 12.4333 9.93333C12.7889 10.0444 13.0444 10.2667 13.2 10.6C13.3556 10.9333 13.3778 11.2778 13.2667 11.6333C13.1333 11.9889 12.9 12.2444 12.5667 12.4C12.2333 12.5556 11.8889 12.5667 11.5333 12.4333C11.0667 12.2556 10.6389 12.0167 10.25 11.7167C9.86111 11.4167 9.54444 11.0667 9.3 10.6667C8.58889 10.6889 7.97222 10.9611 7.45 11.4833C6.92778 12.0056 6.66667 12.6222 6.66667 13.3333C6.66667 14.0667 6.92778 14.6944 7.45 15.2167C7.97222 15.7389 8.6 16 9.33333 16C9.71111 16 10.0278 16.1278 10.2833 16.3833C10.5389 16.6389 10.6667 16.9556 10.6667 17.3333C10.6667 17.7111 10.5389 18.0278 10.2833 18.2833C10.0278 18.5389 9.71111 18.6667 9.33333 18.6667C8.86667 18.6667 8.41667 18.6111 7.98333 18.5C7.55 18.3889 7.14444 18.2222 6.76667 18C6.72222 18.1111 6.69444 18.2222 6.68333 18.3333C6.67222 18.4444 6.66667 18.5556 6.66667 18.6667C6.66667 19.4 6.92778 20.0278 7.45 20.55C7.97222 21.0722 8.6 21.3333 9.33333 21.3333C9.77778 21.3333 10.1889 21.2389 10.5667 21.05C10.9444 20.8611 11.2556 20.5889 11.5 20.2333C11.7222 19.9222 12.0111 19.7389 12.3667 19.6833C12.7222 19.6278 13.0556 19.7111 13.3667 19.9333C13.6778 20.1556 13.8611 20.4444 13.9167 20.8C13.9722 21.1556 13.8889 21.4889 13.6667 21.8C13.3556 22.2222 13 22.5889 12.6 22.9C12.2 23.2111 11.7667 23.4556 11.3 23.6333C11.3222 24.0778 11.5 24.4722 11.8333 24.8167C12.1667 25.1611 12.5556 25.3333 13 25.3333C13.4667 25.3333 13.8611 25.1722 14.1833 24.85C14.5056 24.5278 14.6667 24.1333 14.6667 23.6667Z" fill="black"/>
</svg>
