<svg width="39" height="39" viewBox="0 0 39 39" fill="none" xmlns="http://www.w3.org/2000/svg">
<path d="M12.8375 29.25L15.925 14.4625L13 15.6V19.5H9.75V13.4875L17.9562 10.0344C18.3354 9.87187 18.7349 9.77031 19.1547 9.72969C19.5745 9.68906 19.974 9.73646 20.3531 9.87187C20.7323 10.0073 21.0911 10.1969 21.4297 10.4406C21.7682 10.6844 22.0458 10.9958 22.2625 11.375L23.8875 13.975C24.6458 15.1937 25.6411 16.1484 26.8734 16.8391C28.1057 17.5297 29.4396 17.875 30.875 17.875V21.125C28.9792 21.125 27.2797 20.7458 25.7766 19.9875C24.2734 19.2292 22.9937 18.2542 21.9375 17.0625L20.9625 19.5L24.375 22.75V29.25H21.125V24.2937L17.9562 21.3687L16.25 29.25H12.8375ZM21.9375 8.9375C21.0437 8.9375 20.2786 8.61927 19.6422 7.98281C19.0057 7.34635 18.6875 6.58125 18.6875 5.6875C18.6875 4.79375 19.0057 4.02865 19.6422 3.39219C20.2786 2.75573 21.0437 2.4375 21.9375 2.4375C22.8312 2.4375 23.5964 2.75573 24.2328 3.39219C24.8693 4.02865 25.1875 4.79375 25.1875 5.6875C25.1875 6.58125 24.8693 7.34635 24.2328 7.98281C23.5964 8.61927 22.8312 8.9375 21.9375 8.9375ZM19.5 35.75C17.2521 35.75 15.1396 35.3234 13.1625 34.4703C11.1854 33.6172 9.46562 32.4594 8.00312 30.9969C6.54062 29.5344 5.38281 27.8146 4.52969 25.8375C3.67656 23.8604 3.25 21.7479 3.25 19.5C3.25 16.2771 4.08281 13.3792 5.74844 10.8062C7.41406 8.23333 9.5875 6.28333 12.2687 4.95625L13.7312 7.84062C11.5917 8.89687 9.85156 10.4609 8.51094 12.5328C7.17031 14.6047 6.5 16.9271 6.5 19.5C6.5 23.1292 7.75937 26.2031 10.2781 28.7219C12.7969 31.2406 15.8708 32.5 19.5 32.5C23.1292 32.5 26.2031 31.2406 28.7219 28.7219C31.2406 26.2031 32.5 23.1292 32.5 19.5H35.75C35.75 21.7479 35.3234 23.8604 34.4703 25.8375C33.6172 27.8146 32.4594 29.5344 30.9969 30.9969C29.5344 32.4594 27.8146 33.6172 25.8375 34.4703C23.8604 35.3234 21.7479 35.75 19.5 35.75Z" fill="black"/>
</svg>
