<svg width="32" height="32" viewBox="0 0 32 32" fill="none" xmlns="http://www.w3.org/2000/svg">
<path d="M6.66667 29.3334C5.93333 29.3334 5.30556 29.0722 4.78333 28.55C4.26111 28.0278 4 27.4 4 26.6667V8.00002C4 7.26669 4.26111 6.63891 4.78333 6.11669C5.30556 5.59446 5.93333 5.33335 6.66667 5.33335H8V2.66669H10.6667V5.33335H21.3333V2.66669H24V5.33335H25.3333C26.0667 5.33335 26.6944 5.59446 27.2167 6.11669C27.7389 6.63891 28 7.26669 28 8.00002V26.6667C28 27.4 27.7389 28.0278 27.2167 28.55C26.6944 29.0722 26.0667 29.3334 25.3333 29.3334H6.66667ZM6.66667 26.6667H25.3333V13.3334H6.66667V26.6667ZM6.66667 10.6667H25.3333V8.00002H6.66667V10.6667ZM16 18.6667C15.6222 18.6667 15.3056 18.5389 15.05 18.2834C14.7944 18.0278 14.6667 17.7111 14.6667 17.3334C14.6667 16.9556 14.7944 16.6389 15.05 16.3834C15.3056 16.1278 15.6222 16 16 16C16.3778 16 16.6944 16.1278 16.95 16.3834C17.2056 16.6389 17.3333 16.9556 17.3333 17.3334C17.3333 17.7111 17.2056 18.0278 16.95 18.2834C16.6944 18.5389 16.3778 18.6667 16 18.6667ZM10.6667 18.6667C10.2889 18.6667 9.97222 18.5389 9.71667 18.2834C9.46111 18.0278 9.33333 17.7111 9.33333 17.3334C9.33333 16.9556 9.46111 16.6389 9.71667 16.3834C9.97222 16.1278 10.2889 16 10.6667 16C11.0444 16 11.3611 16.1278 11.6167 16.3834C11.8722 16.6389 12 16.9556 12 17.3334C12 17.7111 11.8722 18.0278 11.6167 18.2834C11.3611 18.5389 11.0444 18.6667 10.6667 18.6667ZM21.3333 18.6667C20.9556 18.6667 20.6389 18.5389 20.3833 18.2834C20.1278 18.0278 20 17.7111 20 17.3334C20 16.9556 20.1278 16.6389 20.3833 16.3834C20.6389 16.1278 20.9556 16 21.3333 16C21.7111 16 22.0278 16.1278 22.2833 16.3834C22.5389 16.6389 22.6667 16.9556 22.6667 17.3334C22.6667 17.7111 22.5389 18.0278 22.2833 18.2834C22.0278 18.5389 21.7111 18.6667 21.3333 18.6667ZM16 24C15.6222 24 15.3056 23.8722 15.05 23.6167C14.7944 23.3611 14.6667 23.0445 14.6667 22.6667C14.6667 22.2889 14.7944 21.9722 15.05 21.7167C15.3056 21.4611 15.6222 21.3334 16 21.3334C16.3778 21.3334 16.6944 21.4611 16.95 21.7167C17.2056 21.9722 17.3333 22.2889 17.3333 22.6667C17.3333 23.0445 17.2056 23.3611 16.95 23.6167C16.6944 23.8722 16.3778 24 16 24ZM10.6667 24C10.2889 24 9.97222 23.8722 9.71667 23.6167C9.46111 23.3611 9.33333 23.0445 9.33333 22.6667C9.33333 22.2889 9.46111 21.9722 9.71667 21.7167C9.97222 21.4611 10.2889 21.3334 10.6667 21.3334C11.0444 21.3334 11.3611 21.4611 11.6167 21.7167C11.8722 21.9722 12 22.2889 12 22.6667C12 23.0445 11.8722 23.3611 11.6167 23.6167C11.3611 23.8722 11.0444 24 10.6667 24ZM21.3333 24C20.9556 24 20.6389 23.8722 20.3833 23.6167C20.1278 23.3611 20 23.0445 20 22.6667C20 22.2889 20.1278 21.9722 20.3833 21.7167C20.6389 21.4611 20.9556 21.3334 21.3333 21.3334C21.7111 21.3334 22.0278 21.4611 22.2833 21.7167C22.5389 21.9722 22.6667 22.2889 22.6667 22.6667C22.6667 23.0445 22.5389 23.3611 22.2833 23.6167C22.0278 23.8722 21.7111 24 21.3333 24Z" fill="black"/>
</svg>
