<svg width="35" height="35" viewBox="0 0 35 35" fill="none" xmlns="http://www.w3.org/2000/svg">
<path d="M16.0417 20.4167H18.9583V10.2083H16.0417V20.4167ZM20.4167 18.2292H23.3333V11.6667H20.4167V18.2292ZM11.6667 17.5H14.5833V11.6667H11.6667V17.5ZM8.75 32.0833V25.8125C7.36458 24.5486 6.28906 23.072 5.52344 21.3828C4.75781 19.6936 4.375 17.9132 4.375 16.0417C4.375 12.3958 5.65104 9.29686 8.20313 6.74478C10.7552 4.1927 13.8542 2.91666 17.5 2.91666C20.5382 2.91666 23.23 3.80989 25.5755 5.59634C27.921 7.3828 29.4462 9.71006 30.151 12.5781L32.0469 20.0521C32.1684 20.5139 32.0833 20.9331 31.7917 21.3099C31.5 21.6866 31.1111 21.875 30.625 21.875H27.7083V26.25C27.7083 27.0521 27.4227 27.7387 26.8516 28.3099C26.2804 28.8811 25.5938 29.1667 24.7917 29.1667H21.875V32.0833H18.9583V26.25H24.7917V18.9583H28.7292L27.3438 13.3073C26.7847 11.0955 25.5938 9.29686 23.7708 7.91145C21.9479 6.52603 19.8576 5.83332 17.5 5.83332C14.6806 5.83332 12.2743 6.8177 10.2813 8.78645C8.28819 10.7552 7.29167 13.1493 7.29167 15.9687C7.29167 17.4271 7.58941 18.8125 8.1849 20.125C8.78038 21.4375 9.625 22.6042 10.7188 23.625L11.6667 24.5V32.0833H8.75Z" fill="black"/>
</svg>
